<svg width="167" height="177" viewBox="0 0 167 177" fill="none" xmlns="http://www.w3.org/2000/svg">
  <path d="M48.0462 16.1073V128.88L66.5804 137.612V24.8393L48.0462 16.1076V16.1073Z" stroke="#312E81" stroke-width="7.5"
    stroke-linecap="round" stroke-linejoin="round" />
  <path
    d="M23.3973 17.0546C22.41 17.7198 21.8316 19.0629 21.8319 20.8344V125.376C21.8319 128.919 24.2851 132.999 27.3115 134.504L78.1964 159.856C81.0409 161.269 83.2314 159.738 83.5014 156.629C83.7714 159.744 85.9619 161.269 88.8064 159.856L139.691 134.504C142.717 132.999 145.169 128.925 145.169 125.376V20.8344C145.169 17.287 142.717 15.6436 139.691 17.1484L88.8064 42.4992C85.9396 43.927 83.738 47.6646 83.5014 51.0719C83.2648 47.6705 81.0632 43.927 78.1964 42.4992L27.3115 17.1484C25.7996 16.3961 24.3862 16.3911 23.3986 17.056L23.3973 17.0546Z"
    stroke="#312E81" stroke-width="10" stroke-linejoin="round" />
  <path fill-rule="evenodd" clip-rule="evenodd"
    d="M88.7888 42.474C85.7625 43.9788 83.3261 48.0472 83.3261 51.5959V156.152C83.3261 159.7 85.7625 161.346 88.7888 159.841L139.726 134.514C142.753 133.009 145.189 128.94 145.189 125.392V20.8358C145.189 17.2871 142.753 15.6416 139.726 17.1464L88.7888 42.474V42.474Z"
    fill="#312E81" stroke="white" stroke-width="5.2549" stroke-linejoin="round" />
  <path fill-rule="evenodd" clip-rule="evenodd"
    d="M78.2116 42.4764C81.2383 43.9814 83.6755 48.0453 83.6755 51.588V156.166C83.6755 159.706 81.2383 161.347 78.2116 159.842L27.2759 134.516C24.2491 133.011 21.812 128.946 21.812 125.406V20.8281C21.812 17.2852 24.2491 15.6448 27.2759 17.1498L78.2116 42.4761V42.4764Z"
    fill="#312E81" stroke="white" stroke-width="5.25484" stroke-linejoin="round" />
  <path fill-rule="evenodd" clip-rule="evenodd"
    d="M48.0482 16.1082V121.505L66.5825 130.236V24.8388L48.0482 16.1084V16.1082Z" fill="#312E81" stroke="white"
    stroke-width="2.61526" stroke-linecap="round" stroke-linejoin="round" />
</svg>